<?xml version="1.0" encoding="utf-8"?>
<svg xmlns="http://www.w3.org/2000/svg"
	xmlns:xlink="http://www.w3.org/1999/xlink"
	width="162px" height="19px" viewBox="0 0 162 19">
<path fillRule="evenodd" d="M 161.8 17.88C 161.95 17.95 162 18.08 162 18.26 162 18.54 161.9 18.67 161.78 18.67 161.78 18.67 158.31 18.67 158.31 18.67 158.16 18.67 157.98 18.57 157.85 18.46 156.51 17.11 155.01 15.37 153.75 13.79 151.97 11.56 150.58 10.16 150.02 10.16 150.02 10.16 149.52 10.16 149.52 10.16 149.59 11.08 149.62 12.35 149.62 13.56 149.62 13.56 149.62 18.44 149.62 18.44 149.62 18.54 149.49 18.67 149.39 18.67 149.39 18.67 146.61 18.67 146.61 18.67 146.48 18.67 146.38 18.54 146.38 18.44 146.38 18.44 146.38 0.88 146.38 0.88 146.38 0.75 146.48 0.62 146.61 0.62 146.61 0.62 149.39 0.62 149.39 0.62 149.49 0.62 149.62 0.75 149.62 0.88 149.62 0.88 149.62 5.09 149.62 5.09 149.62 6.17 149.59 7.27 149.54 8.14 149.54 8.14 150.02 8.14 150.02 8.14 150.46 8.14 151.72 6.83 153.47 4.71 154.48 3.51 155.7 2.03 156.84 0.82 156.96 0.7 157.09 0.62 157.24 0.62 157.24 0.62 160.48 0.62 160.48 0.62 160.61 0.62 160.69 0.75 160.69 0.9 160.69 1.03 160.64 1.13 160.56 1.18 159.9 1.54 158.18 3.33 155.95 5.81 154.63 7.22 153.39 8.49 152.84 8.83 153.34 9.03 154.79 10.62 156.51 12.53 158.59 14.88 161.04 17.44 161.8 17.88ZM 134.39 19C 129.35 19 125.27 15.22 125.27 9.36 125.27 3.64 129.5 0.03 134.39 0.03 139.25 0.03 143.5 3.53 143.5 9.36 143.5 15.14 139.66 19 134.39 19ZM 134.41 2.67C 131.12 2.67 128.84 4.79 128.84 9.36 128.84 13.56 130.79 16.37 134.39 16.37 138.11 16.37 139.93 13.58 139.93 9.36 139.93 4.81 137.65 2.67 134.41 2.67ZM 114.09 19C 109.05 19 104.97 15.22 104.97 9.36 104.97 3.64 109.2 0.03 114.09 0.03 118.95 0.03 123.21 3.53 123.21 9.36 123.21 15.14 119.36 19 114.09 19ZM 114.11 2.67C 110.82 2.67 108.54 4.79 108.54 9.36 108.54 13.56 110.49 16.37 114.09 16.37 117.81 16.37 119.64 13.58 119.64 9.36 119.64 4.81 117.36 2.67 114.11 2.67ZM 103.11 13.89C 103.11 16.83 100.91 18.67 97.13 18.67 97.13 18.67 89.97 18.67 89.97 18.67 89.84 18.67 89.74 18.54 89.74 18.44 89.74 18.44 89.74 0.88 89.74 0.88 89.74 0.75 89.84 0.62 89.97 0.62 89.97 0.62 96.1 0.62 96.1 0.62 100.71 0.62 102.02 2.87 102.02 4.89 102.02 7.06 100.17 8.49 98.15 8.95 100.76 9.16 103.11 11.1 103.11 13.89ZM 98.71 5.55C 98.71 3.84 97.74 3 95.46 3 94.7 3 93.66 2.97 92.88 2.92 92.96 3.84 92.98 4.71 92.98 5.58 92.98 6.45 92.96 7.42 92.88 8.26 93.56 8.19 94.32 8.16 95.08 8.16 97.67 8.16 98.71 7.11 98.71 5.55ZM 95.77 10.33C 94.83 10.33 93.74 10.31 92.88 10.26 92.96 11.2 92.98 12.23 92.98 13.3 92.98 14.32 92.96 15.32 92.88 16.34 94.02 16.29 95.36 16.27 96.55 16.27 98.78 16.27 99.79 15.32 99.79 13.43 99.79 11.56 98.63 10.33 95.77 10.33ZM 85.81 14.13C 85.81 14.13 81.6 6.77 81.6 6.77 81.52 6.64 81.61 6.48 81.76 6.48 81.76 6.48 86.79 6.48 86.79 6.48 86.87 6.48 86.95 6.54 86.97 6.62 87.25 7.5 87.39 8.44 87.39 9.42 87.39 11.14 86.94 12.75 86.14 14.13 86.07 14.26 85.88 14.26 85.81 14.13ZM 77.55 5.01C 77.41 5.01 77.32 4.84 77.39 4.72 77.39 4.72 79.9 0.32 79.9 0.32 79.95 0.25 80.03 0.21 80.11 0.23 82.69 0.81 84.86 2.47 86.15 4.71 86.22 4.84 86.13 5 85.98 5 85.98 5 77.55 5.01 77.55 5.01ZM 74.03 7.65C 73.95 7.78 73.77 7.78 73.69 7.65 73.69 7.65 71.18 3.25 71.18 3.25 71.14 3.18 71.15 3.09 71.21 3.03 72.91 1.16 75.35-0 78.06-0 78.06-0 78.06-0 78.06-0 78.21-0 78.3 0.16 78.23 0.29 78.23 0.29 74.03 7.65 74.03 7.65ZM 74.36 12.36C 74.36 12.36 69.33 12.36 69.33 12.36 69.25 12.36 69.17 12.3 69.15 12.22 68.88 11.33 68.73 10.39 68.73 9.42 68.73 7.7 69.19 6.09 69.98 4.7 70.06 4.57 70.24 4.57 70.31 4.7 70.31 4.7 74.53 12.07 74.53 12.07 74.6 12.2 74.51 12.36 74.36 12.36ZM 65.18 3.2C 64.06 3.2 62.97 3.18 61.86 3.1 61.91 4.05 61.94 5.02 61.94 5.96 61.94 5.96 61.94 18.44 61.94 18.44 61.94 18.54 61.81 18.67 61.71 18.67 61.71 18.67 58.95 18.67 58.95 18.67 58.82 18.67 58.72 18.54 58.72 18.44 58.72 18.44 58.72 5.91 58.72 5.91 58.72 4.97 58.74 3.99 58.8 3.1 57.78 3.18 56.79 3.2 55.78 3.2 54.62 3.2 53.73 3.25 52.56 3.25 52.44 3.25 52.36 3.18 52.39 3.05 52.39 3.05 52.72 0.85 52.72 0.85 52.74 0.7 52.79 0.62 52.89 0.62 52.89 0.62 67.99 0.62 67.99 0.62 68.12 0.62 68.17 0.7 68.17 0.82 68.17 0.82 68.17 3.07 68.17 3.07 68.17 3.18 68.12 3.25 67.99 3.25 67.13 3.25 66.06 3.2 65.18 3.2ZM 42.14 19C 37.1 19 33.03 15.22 33.03 9.36 33.03 3.64 37.26 0.03 42.14 0.03 47.01 0.03 51.26 3.53 51.26 9.36 51.26 15.14 47.41 19 42.14 19ZM 42.17 2.67C 38.88 2.67 36.6 4.79 36.6 9.36 36.6 13.56 38.55 16.37 42.14 16.37 45.87 16.37 47.69 13.58 47.69 9.36 47.69 4.81 45.41 2.67 42.17 2.67ZM 27.04 18.67C 26.91 18.67 26.81 18.54 26.81 18.44 26.81 18.44 26.81 13.96 26.81 13.96 26.81 12.76 26.81 11.54 26.86 10.39 25.85 10.44 25.24 10.44 24.38 10.44 24.38 10.44 20.45 10.44 20.45 10.44 19.59 10.44 18.96 10.44 17.94 10.39 18 11.54 18.02 12.76 18.02 13.96 18.02 13.96 18.02 18.44 18.02 18.44 18.02 18.54 17.89 18.67 17.79 18.67 17.79 18.67 15.01 18.67 15.01 18.67 14.88 18.67 14.78 18.54 14.78 18.44 14.78 18.44 14.78 0.88 14.78 0.88 14.78 0.75 14.88 0.62 15.01 0.62 15.01 0.62 17.79 0.62 17.79 0.62 17.89 0.62 18.02 0.75 18.02 0.88 18.02 0.88 18.02 4.63 18.02 4.63 18.02 5.71 18 6.81 17.94 7.83 18.73 7.78 19.59 7.75 20.5 7.75 20.5 7.75 24.33 7.75 24.33 7.75 25.24 7.75 26.08 7.78 26.86 7.83 26.81 6.81 26.81 5.71 26.81 4.63 26.81 4.63 26.81 0.88 26.81 0.88 26.81 0.75 26.91 0.62 27.04 0.62 27.04 0.62 29.8 0.62 29.8 0.62 29.9 0.62 30.03 0.75 30.03 0.88 30.03 0.88 30.03 18.44 30.03 18.44 30.03 18.54 29.9 18.67 29.8 18.67 29.8 18.67 27.04 18.67 27.04 18.67ZM 5.6 12.07C 4.61 12.07 3.78 12.05 3.15 12 3.22 12.89 3.25 14.14 3.25 15.35 3.25 15.35 3.25 18.44 3.25 18.44 3.25 18.54 3.12 18.67 3.02 18.67 3.02 18.67 0.23 18.67 0.23 18.67 0.11 18.67 0 18.54 0 18.44 0 18.44 0 0.95 0 0.95 0 0.77 0.13 0.62 0.23 0.62 0.23 0.62 5.88 0.62 5.88 0.62 10.29 0.62 12.37 3.25 12.37 6.35 12.37 9.85 9.98 12.07 5.6 12.07ZM 5.63 3.02C 4.79 3.02 3.96 3 3.17 2.95 3.22 3.79 3.25 5.32 3.25 6.27 3.25 7.37 3.22 8.88 3.17 9.77 3.83 9.72 4.64 9.72 5.27 9.72 7.73 9.72 9 8.7 9 6.37 9 4.43 8.03 3.02 5.63 3.02ZM 78.56 13.83C 78.7 13.83 78.8 13.99 78.72 14.12 78.72 14.12 76.21 18.51 76.21 18.51 76.17 18.59 76.08 18.62 76 18.6 73.43 18.02 71.26 16.36 69.98 14.12 69.9 14 70 13.84 70.14 13.84 70.14 13.84 78.56 13.83 78.56 13.83ZM 82.1 11.18C 82.17 11.06 82.35 11.06 82.43 11.18 82.43 11.18 84.94 15.58 84.94 15.58 84.98 15.65 84.97 15.74 84.92 15.81 83.21 17.67 80.77 18.84 78.06 18.84 78.06 18.84 78.05 18.84 78.05 18.84 77.9 18.83 77.81 18.67 77.88 18.55 77.88 18.55 82.1 11.18 82.1 11.18Z" fill="rgb(0,0,0)"/></svg>